<svg width="602" height="346" viewBox="0 0 602 346" fill="none" xmlns="http://www.w3.org/2000/svg">
<rect width="602" height="346" fill="#AEE0E4"/>
<path d="M54.2 183.64C51.0853 183.64 48.376 183.064 46.072 181.912C43.768 180.717 41.976 179.075 40.696 176.984C39.4587 174.851 38.84 172.376 38.84 169.56V149.72C38.84 146.904 39.4587 144.451 40.696 142.36C41.976 140.227 43.768 138.584 46.072 137.432C48.376 136.237 51.0853 135.64 54.2 135.64C57.3573 135.64 60.0667 136.237 62.328 137.432C64.632 138.584 66.4027 140.227 67.64 142.36C68.92 144.451 69.56 146.904 69.56 149.72V169.56C69.56 172.376 68.92 174.851 67.64 176.984C66.4027 179.075 64.632 180.717 62.328 181.912C60.0667 183.064 57.3573 183.64 54.2 183.64ZM54.2 175.32C56.12 175.32 57.5493 174.829 58.488 173.848C59.4693 172.824 59.96 171.395 59.96 169.56V149.72C59.96 147.843 59.4907 146.413 58.552 145.432C57.6133 144.451 56.1627 143.96 54.2 143.96C52.2373 143.96 50.7867 144.451 49.848 145.432C48.9093 146.413 48.44 147.843 48.44 149.72V169.56C48.44 171.395 48.9093 172.824 49.848 173.848C50.8293 174.829 52.28 175.32 54.2 175.32ZM92.575 183.64C89.4603 183.64 86.751 183.064 84.447 181.912C82.143 180.717 80.351 179.075 79.071 176.984C77.8337 174.851 77.215 172.376 77.215 169.56V149.72C77.215 146.904 77.8337 144.451 79.071 142.36C80.351 140.227 82.143 138.584 84.447 137.432C86.751 136.237 89.4603 135.64 92.575 135.64C95.7323 135.64 98.4417 136.237 100.703 137.432C103.007 138.584 104.778 140.227 106.015 142.36C107.295 144.451 107.935 146.904 107.935 149.72V169.56C107.935 172.376 107.295 174.851 106.015 176.984C104.778 179.075 103.007 180.717 100.703 181.912C98.4417 183.064 95.7323 183.64 92.575 183.64ZM92.575 175.32C94.495 175.32 95.9243 174.829 96.863 173.848C97.8443 172.824 98.335 171.395 98.335 169.56V149.72C98.335 147.843 97.8657 146.413 96.927 145.432C95.9883 144.451 94.5377 143.96 92.575 143.96C90.6123 143.96 89.1617 144.451 88.223 145.432C87.2843 146.413 86.815 147.843 86.815 149.72V169.56C86.815 171.395 87.2843 172.824 88.223 173.848C89.2043 174.829 90.655 175.32 92.575 175.32ZM115.974 183V136.28H131.91C135.195 136.28 138.054 136.899 140.486 138.136C142.961 139.373 144.859 141.101 146.182 143.32C147.547 145.539 148.23 148.141 148.23 151.128C148.23 154.072 147.547 156.675 146.182 158.936C144.817 161.155 142.918 162.883 140.486 164.12C138.054 165.357 135.195 165.976 131.91 165.976H125.574V183H115.974ZM125.574 157.336H131.91C133.958 157.336 135.579 156.781 136.774 155.672C138.011 154.52 138.63 153.005 138.63 151.128C138.63 149.251 138.011 147.757 136.774 146.648C135.579 145.496 133.958 144.92 131.91 144.92H125.574V157.336ZM169.325 183.64C166.04 183.64 163.181 183.085 160.749 181.976C158.317 180.867 156.44 179.309 155.117 177.304C153.794 175.299 153.133 172.931 153.133 170.2H162.733C162.733 171.779 163.33 173.037 164.525 173.976C165.762 174.872 167.426 175.32 169.517 175.32C171.522 175.32 173.08 174.872 174.189 173.976C175.341 173.08 175.917 171.843 175.917 170.264C175.917 168.899 175.49 167.725 174.637 166.744C173.784 165.763 172.589 165.101 171.053 164.76L166.317 163.672C162.349 162.733 159.256 161.005 157.037 158.488C154.861 155.928 153.773 152.813 153.773 149.144C153.773 146.413 154.392 144.045 155.629 142.04C156.909 139.992 158.701 138.413 161.005 137.304C163.309 136.195 166.04 135.64 169.197 135.64C173.976 135.64 177.752 136.835 180.525 139.224C183.341 141.571 184.749 144.749 184.749 148.76H175.149C175.149 147.267 174.616 146.093 173.549 145.24C172.525 144.387 171.032 143.96 169.069 143.96C167.234 143.96 165.826 144.387 164.845 145.24C163.864 146.051 163.373 147.224 163.373 148.76C163.373 150.125 163.757 151.299 164.525 152.28C165.336 153.219 166.466 153.859 167.917 154.2L172.909 155.352C177.048 156.291 180.184 157.997 182.317 160.472C184.45 162.904 185.517 166.019 185.517 169.816C185.517 172.547 184.834 174.957 183.469 177.048C182.146 179.139 180.269 180.76 177.837 181.912C175.448 183.064 172.61 183.64 169.325 183.64Z" fill="#66B0B2"/>
<g clip-path="url(#clip0_23_3)">
<rect x="376" width="159" height="346" fill="white"/>
<path fill-rule="evenodd" clip-rule="evenodd" d="M549.235 0L460.283 1.19651e-06V22.5401H441.324V0H355.294L320 346.106H583.338L549.235 0ZM459.712 324.474H442.065V259.579H459.712V324.474ZM459.712 217.225H442.065V151.421H459.712V217.225ZM441.324 107.271V64.008H458.971V107.271H441.324Z" fill="#434343"/>
<path d="M485.233 270.67L494.864 268.838L496.84 263.394L486.072 261.403L485.184 266.43L483.547 268.179L485.233 270.67Z" fill="#E4E2DC"/>
<path d="M485.243 270.673L483.602 268.06L485.195 266.426L486.091 261.418L487.006 261.573L491.677 269.427L485.243 270.673Z" fill="#C1BEBB"/>
<path d="M487.566 263.183L486.875 268.524L493.659 267.665L494.718 264.611L487.566 263.183Z" fill="#2A2B2A"/>
<path d="M395.212 263.324L397.187 268.768L406.819 270.6L408.505 268.109L406.867 266.36L405.978 261.334L395.212 263.324Z" fill="#E4E2DC"/>
<path d="M406.83 270.599L408.472 267.985L406.878 266.351L405.983 261.343L405.068 261.498L400.382 269.374L406.83 270.599Z" fill="#C1BEBB"/>
<path d="M404.486 263.114L405.178 268.454L398.393 267.595L397.335 264.541L404.486 263.114Z" fill="#2A2B2A"/>
<path d="M397.956 317.392L399.142 332H412.774L415.59 317.235L397.956 317.392Z" fill="#5C5E5F"/>
<path d="M412.182 317.235L412.774 332L417.002 317.235H412.182Z" fill="#2A2B2A"/>
<path d="M478.014 332H491.667L492.852 317.55L475.218 317.392L478.014 332Z" fill="#5C5E5F"/>
<path d="M473.806 317.392L478.014 332L478.627 317.392H473.806Z" fill="#2A2B2A"/>
<path d="M416.003 242.918L396.164 284.673L397.941 317.351L399.275 317.356L492.858 317.707L495.536 284.875L476.13 242.918H416.003Z" fill="#E4E2DC"/>
<path d="M396.161 285.115L396.749 296.022L409.81 296.023L410.474 285.178L396.161 285.115Z" fill="#AE2025"/>
<path d="M413.473 285.146L418.441 292.969L415.297 296.087L409.815 296.008L410.559 285.192L413.473 285.146Z" fill="#F6F1E1"/>
<path d="M495.535 285.145L494.654 295.991L481.826 296.023L481.085 285.186L495.535 285.145Z" fill="#AE2025"/>
<path d="M478.26 285.185L474.02 292.998L477.137 296.023L481.84 295.99L481.076 285.176L478.26 285.185Z" fill="#F6F1E1"/>
<path d="M419.877 247.474L409.555 272.169H481.469L472.529 247.474H419.877Z" fill="#313156"/>
<path d="M426.234 315.508C426.234 317.589 424.641 319.278 422.678 319.278C420.714 319.278 419.121 317.589 419.121 315.508C419.121 313.426 420.714 311.738 422.678 311.738C424.641 311.738 426.234 313.426 426.234 315.508Z" fill="#2A2B2A"/>
<path d="M418.44 292.908L415.297 296.102L477.107 296.023L473.991 292.908H418.44Z" fill="#C1BEBB"/>
<path d="M434.229 301.602L432.087 309.564H457.068L454.951 301.7L434.229 301.602Z" fill="#F4F2ED"/>
<path d="M419.873 247.474L409.555 272.169H423.648L446.869 247.474H419.873Z" fill="#0F2342" fill-opacity="0.3"/>
<path d="M472.555 247.474H469.979L446.541 272.17H481.469L472.555 247.474Z" fill="#0A1723" fill-opacity="0.3"/>
<path d="M446.922 272.169L469.978 247.474H464.131L441.472 272.169H446.922Z" fill="#494A72"/>
<path d="M495.502 285.181L494.62 296.026L481.876 296.03L481.051 285.221L495.502 285.181Z" fill="#AE2025"/>
<path d="M495.502 285.174L494.609 296.03H481.932L482.196 300.066L498.917 300.444L500.886 281.591H480.951L481.16 285.218L495.502 285.174Z" fill="#AD2126" fill-opacity="0.35"/>
<path d="M500.909 281.591L498.939 300.444L482.198 300.065L482.447 304.057L503.605 304.926L506.104 277.695L480.739 277.633L480.96 281.591H500.909Z" fill="#AD2126" fill-opacity="0.2"/>
<path d="M381.523 49H388.655L396.103 12.2223L389.539 12.0005L381.523 49Z" fill="#D8D3CB"/>
<path d="M414.419 12.2223L421.867 49H429L420.984 12L414.419 12.2223Z" fill="#D8D3CB"/>
<path d="M381.732 22.3047L428.087 22.2741L428.778 14.5191L381 14.5087L381.732 22.3047Z" fill="#F4F2ED"/>
<path d="M381.732 22.3047H381.97L389.431 14.5104L381 14.5087L381.732 22.3047Z" fill="#AD2125"/>
<path d="M421.492 22.2785L428.087 22.2747L428.764 14.6813L421.492 22.2785Z" fill="#AD2125"/>
<path d="M389.193 22.2998L398.317 22.2938L405.764 14.5142L396.648 14.512L389.193 22.2998Z" fill="#AD2125"/>
<path d="M405.411 22.2894L414.535 22.2834L421.969 14.518L412.852 14.5158L405.411 22.2894Z" fill="#AD2125"/>
<path d="M381 35.0166L428.779 35.0062L428.087 27.2512L381.732 27.2211L381 35.0166Z" fill="#F4F2ED"/>
<path d="M381 35.0166H381.305L388.763 27.2255L381.732 27.2211L381 35.0166Z" fill="#AD2125"/>
<path d="M420.81 35.0078L428.778 35.0062L428.1 27.3926L420.81 35.0078Z" fill="#AD2125"/>
<path d="M388.525 35.0149L397.645 35.0128L405.089 27.2359L395.977 27.2304L388.525 35.0149Z" fill="#AD2125"/>
<path d="M404.737 35.0111L413.857 35.0089L421.287 27.2463L412.175 27.2402L404.737 35.0111Z" fill="#AD2125"/>
<path d="M464.523 49H471.655L479.103 12.2223L472.539 12.0005L464.523 49Z" fill="#D8D3CB"/>
<path d="M497.419 12.2223L504.867 49H512L503.984 12L497.419 12.2223Z" fill="#D8D3CB"/>
<path d="M464.732 22.3047L511.087 22.2741L511.778 14.5191L464 14.5087L464.732 22.3047Z" fill="#F4F2ED"/>
<path d="M464.732 22.3047H464.97L472.431 14.5104L464 14.5087L464.732 22.3047Z" fill="#AD2125"/>
<path d="M504.492 22.2785L511.087 22.2747L511.764 14.6813L504.492 22.2785Z" fill="#AD2125"/>
<path d="M472.193 22.2998L481.317 22.2938L488.764 14.5142L479.648 14.512L472.193 22.2998Z" fill="#AD2125"/>
<path d="M488.411 22.2894L497.535 22.2834L504.969 14.518L495.852 14.5158L488.411 22.2894Z" fill="#AD2125"/>
<path d="M464 35.0166L511.779 35.0062L511.087 27.2512L464.732 27.2211L464 35.0166Z" fill="#F4F2ED"/>
<path d="M464 35.0166H464.305L471.763 27.2255L464.732 27.2211L464 35.0166Z" fill="#AD2125"/>
<path d="M503.81 35.0078L511.778 35.0062L511.1 27.3926L503.81 35.0078Z" fill="#AD2125"/>
<path d="M471.525 35.0149L480.645 35.0128L488.089 27.2359L478.977 27.2304L471.525 35.0149Z" fill="#AD2125"/>
<path d="M487.737 35.0111L496.857 35.0089L504.287 27.2463L495.175 27.2402L487.737 35.0111Z" fill="#AD2125"/>
</g>
<path d="M36.7 202V194.92H34.48V193.24H40.72V194.92H38.5V202H36.7ZM41.9873 202V193.24H43.7873V195.4L43.7273 196.66H44.2553L43.7273 197.08C43.7273 196.52 43.8873 196.08 44.2073 195.76C44.5273 195.44 44.9593 195.28 45.5033 195.28C46.1433 195.28 46.6553 195.504 47.0393 195.952C47.4313 196.4 47.6273 196.996 47.6273 197.74V202H45.8273V197.92C45.8273 197.576 45.7353 197.312 45.5513 197.128C45.3753 196.936 45.1233 196.84 44.7953 196.84C44.4753 196.84 44.2273 196.936 44.0513 197.128C43.8753 197.312 43.7873 197.576 43.7873 197.92V202H41.9873ZM52.0026 202.12C51.4186 202.12 50.9066 202.012 50.4666 201.796C50.0346 201.572 49.6986 201.264 49.4586 200.872C49.2266 200.472 49.1106 200.008 49.1106 199.48V197.92C49.1106 197.392 49.2266 196.932 49.4586 196.54C49.6986 196.14 50.0346 195.832 50.4666 195.616C50.9066 195.392 51.4186 195.28 52.0026 195.28C52.5866 195.28 53.0906 195.392 53.5146 195.616C53.9466 195.832 54.2786 196.14 54.5106 196.54C54.7506 196.932 54.8706 197.392 54.8706 197.92V199.12H50.8266V199.48C50.8266 199.896 50.9266 200.212 51.1266 200.428C51.3266 200.636 51.6266 200.74 52.0266 200.74C52.3066 200.74 52.5306 200.692 52.6986 200.596C52.8746 200.5 52.9906 200.368 53.0466 200.2H54.8106C54.6666 200.776 54.3386 201.24 53.8266 201.592C53.3226 201.944 52.7146 202.12 52.0026 202.12ZM53.1546 198.196V197.896C53.1546 197.488 53.0586 197.176 52.8666 196.96C52.6826 196.744 52.3946 196.636 52.0026 196.636C51.6106 196.636 51.3146 196.748 51.1146 196.972C50.9226 197.196 50.8266 197.512 50.8266 197.92V198.1L53.2746 198.076L53.1546 198.196ZM66.3813 202.12C65.7973 202.12 65.2893 202.012 64.8573 201.796C64.4253 201.572 64.0893 201.264 63.8493 200.872C63.6173 200.472 63.5013 200.008 63.5013 199.48V197.92C63.5013 197.392 63.6173 196.932 63.8493 196.54C64.0893 196.14 64.4253 195.832 64.8573 195.616C65.2893 195.392 65.7973 195.28 66.3813 195.28C66.9733 195.28 67.4813 195.392 67.9053 195.616C68.3373 195.832 68.6693 196.14 68.9013 196.54C69.1413 196.932 69.2613 197.392 69.2613 197.92V199.48C69.2613 200.008 69.1413 200.472 68.9013 200.872C68.6693 201.264 68.3373 201.572 67.9053 201.796C67.4813 202.012 66.9733 202.12 66.3813 202.12ZM66.3813 200.56C66.7333 200.56 67.0013 200.468 67.1853 200.284C67.3693 200.092 67.4613 199.824 67.4613 199.48V197.92C67.4613 197.568 67.3693 197.3 67.1853 197.116C67.0013 196.932 66.7333 196.84 66.3813 196.84C66.0373 196.84 65.7693 196.932 65.5773 197.116C65.3933 197.3 65.3013 197.568 65.3013 197.92V199.48C65.3013 199.824 65.3933 200.092 65.5773 200.284C65.7693 200.468 66.0373 200.56 66.3813 200.56ZM74.2966 202C73.6246 202 73.0966 201.808 72.7126 201.424C72.3286 201.04 72.1366 200.512 72.1366 199.84V197.02H70.3966V195.4H72.1366V193.54H73.9366V195.4H76.3966V197.02H73.9366V199.84C73.9366 200.2 74.1166 200.38 74.4766 200.38H76.2766V202H74.2966ZM77.9639 202V193.24H79.7639V195.4L79.7039 196.66H80.2319L79.7039 197.08C79.7039 196.52 79.8639 196.08 80.1839 195.76C80.5039 195.44 80.9359 195.28 81.4799 195.28C82.1199 195.28 82.6319 195.504 83.0159 195.952C83.4079 196.4 83.6039 196.996 83.6039 197.74V202H81.8039V197.92C81.8039 197.576 81.7119 197.312 81.5279 197.128C81.3519 196.936 81.0999 196.84 80.7719 196.84C80.4519 196.84 80.2039 196.936 80.0279 197.128C79.8519 197.312 79.7639 197.576 79.7639 197.92V202H77.9639ZM87.9792 202.12C87.3952 202.12 86.8832 202.012 86.4432 201.796C86.0112 201.572 85.6752 201.264 85.4352 200.872C85.2032 200.472 85.0872 200.008 85.0872 199.48V197.92C85.0872 197.392 85.2032 196.932 85.4352 196.54C85.6752 196.14 86.0112 195.832 86.4432 195.616C86.8832 195.392 87.3952 195.28 87.9792 195.28C88.5632 195.28 89.0672 195.392 89.4912 195.616C89.9232 195.832 90.2552 196.14 90.4872 196.54C90.7272 196.932 90.8472 197.392 90.8472 197.92V199.12H86.8032V199.48C86.8032 199.896 86.9032 200.212 87.1032 200.428C87.3032 200.636 87.6032 200.74 88.0032 200.74C88.2832 200.74 88.5072 200.692 88.6752 200.596C88.8512 200.5 88.9672 200.368 89.0232 200.2H90.7872C90.6432 200.776 90.3152 201.24 89.8032 201.592C89.2992 201.944 88.6912 202.12 87.9792 202.12ZM89.1312 198.196V197.896C89.1312 197.488 89.0352 197.176 88.8432 196.96C88.6592 196.744 88.3712 196.636 87.9792 196.636C87.5872 196.636 87.2912 196.748 87.0912 196.972C86.8992 197.196 86.8032 197.512 86.8032 197.92V198.1L89.2512 198.076L89.1312 198.196ZM92.5465 202V195.4H94.2265V196.66H94.6825L94.1665 197.428C94.1665 196.716 94.3305 196.18 94.6585 195.82C94.9865 195.46 95.4665 195.28 96.0985 195.28C96.8265 195.28 97.3905 195.5 97.7905 195.94C98.1985 196.38 98.4025 197 98.4025 197.8V198.34H96.4825V197.92C96.4825 197.56 96.3825 197.28 96.1825 197.08C95.9905 196.88 95.7305 196.78 95.4025 196.78C95.0585 196.78 94.7945 196.88 94.6105 197.08C94.4345 197.28 94.3465 197.56 94.3465 197.92V202H92.5465ZM107.033 202L106.073 195.4H107.513L107.993 199C108.033 199.264 108.065 199.564 108.089 199.9C108.121 200.236 108.145 200.512 108.161 200.728C108.185 200.512 108.217 200.24 108.257 199.912C108.305 199.576 108.349 199.272 108.389 199L108.941 195.4H110.189L110.717 199C110.757 199.272 110.797 199.576 110.837 199.912C110.885 200.248 110.921 200.524 110.945 200.74C110.961 200.516 110.985 200.236 111.017 199.9C111.057 199.556 111.093 199.256 111.125 199L111.629 195.4H113.033L112.061 202H110.261L109.769 198.28C109.737 198.056 109.701 197.788 109.661 197.476C109.621 197.164 109.589 196.904 109.565 196.696C109.533 196.904 109.497 197.164 109.457 197.476C109.417 197.788 109.381 198.056 109.349 198.28L108.845 202H107.033ZM115.896 202.12C115.232 202.12 114.704 201.94 114.312 201.58C113.928 201.22 113.736 200.732 113.736 200.116C113.736 199.452 113.964 198.944 114.42 198.592C114.884 198.232 115.548 198.052 116.412 198.052H117.78V197.56C117.78 197.304 117.688 197.1 117.504 196.948C117.328 196.796 117.088 196.72 116.784 196.72C116.504 196.72 116.272 196.784 116.088 196.912C115.904 197.04 115.792 197.216 115.752 197.44H114.012C114.084 196.776 114.372 196.252 114.876 195.868C115.388 195.476 116.044 195.28 116.844 195.28C117.684 195.28 118.348 195.488 118.836 195.904C119.332 196.312 119.58 196.864 119.58 197.56V202H117.84V200.92H117.552L117.852 200.5C117.852 200.996 117.672 201.392 117.312 201.688C116.96 201.976 116.488 202.12 115.896 202.12ZM116.568 200.8C116.92 200.8 117.208 200.708 117.432 200.524C117.664 200.332 117.78 200.084 117.78 199.78V199.072H116.448C116.176 199.072 115.956 199.152 115.788 199.312C115.62 199.464 115.536 199.668 115.536 199.924C115.536 200.196 115.628 200.412 115.812 200.572C115.996 200.724 116.248 200.8 116.568 200.8ZM122.228 204.16L123.128 201.676L120.656 195.4H122.612L123.608 198.28C123.68 198.496 123.752 198.76 123.824 199.072C123.904 199.376 123.964 199.624 124.004 199.816C124.044 199.624 124.1 199.376 124.172 199.072C124.252 198.76 124.328 198.496 124.4 198.28L125.36 195.4H127.232L124.112 204.16H122.228ZM137.482 202.12C136.818 202.12 136.29 201.94 135.898 201.58C135.514 201.22 135.322 200.732 135.322 200.116C135.322 199.452 135.55 198.944 136.006 198.592C136.47 198.232 137.134 198.052 137.998 198.052H139.366V197.56C139.366 197.304 139.274 197.1 139.09 196.948C138.914 196.796 138.674 196.72 138.37 196.72C138.09 196.72 137.858 196.784 137.674 196.912C137.49 197.04 137.378 197.216 137.338 197.44H135.598C135.67 196.776 135.958 196.252 136.462 195.868C136.974 195.476 137.63 195.28 138.43 195.28C139.27 195.28 139.934 195.488 140.422 195.904C140.918 196.312 141.166 196.864 141.166 197.56V202H139.426V200.92H139.138L139.438 200.5C139.438 200.996 139.258 201.392 138.898 201.688C138.546 201.976 138.074 202.12 137.482 202.12ZM138.154 200.8C138.506 200.8 138.794 200.708 139.018 200.524C139.25 200.332 139.366 200.084 139.366 199.78V199.072H138.034C137.762 199.072 137.542 199.152 137.374 199.312C137.206 199.464 137.122 199.668 137.122 199.924C137.122 200.196 137.214 200.412 137.398 200.572C137.582 200.724 137.834 200.8 138.154 200.8ZM142.914 202V195.4H144.594V196.66H145.05L144.534 197.428C144.534 196.716 144.698 196.18 145.026 195.82C145.354 195.46 145.834 195.28 146.466 195.28C147.194 195.28 147.758 195.5 148.158 195.94C148.566 196.38 148.77 197 148.77 197.8V198.34H146.85V197.92C146.85 197.56 146.75 197.28 146.55 197.08C146.358 196.88 146.098 196.78 145.77 196.78C145.426 196.78 145.162 196.88 144.978 197.08C144.802 197.28 144.714 197.56 144.714 197.92V202H142.914ZM152.725 202.12C152.141 202.12 151.633 202.012 151.201 201.796C150.769 201.572 150.433 201.264 150.193 200.872C149.961 200.472 149.845 200.008 149.845 199.48V197.92C149.845 197.392 149.961 196.932 150.193 196.54C150.433 196.14 150.769 195.832 151.201 195.616C151.633 195.392 152.141 195.28 152.725 195.28C153.317 195.28 153.825 195.392 154.249 195.616C154.681 195.832 155.013 196.14 155.245 196.54C155.485 196.932 155.605 197.392 155.605 197.92V199.48C155.605 200.008 155.485 200.472 155.245 200.872C155.013 201.264 154.681 201.572 154.249 201.796C153.825 202.012 153.317 202.12 152.725 202.12ZM152.725 200.56C153.077 200.56 153.345 200.468 153.529 200.284C153.713 200.092 153.805 199.824 153.805 199.48V197.92C153.805 197.568 153.713 197.3 153.529 197.116C153.345 196.932 153.077 196.84 152.725 196.84C152.381 196.84 152.113 196.932 151.921 197.116C151.737 197.3 151.645 197.568 151.645 197.92V199.48C151.645 199.824 151.737 200.092 151.921 200.284C152.113 200.468 152.381 200.56 152.725 200.56ZM159.92 202.12C159.032 202.12 158.336 201.88 157.832 201.4C157.336 200.92 157.088 200.264 157.088 199.432V195.4H158.888V199.42C158.888 199.788 158.976 200.072 159.152 200.272C159.328 200.464 159.584 200.56 159.92 200.56C160.248 200.56 160.5 200.464 160.676 200.272C160.86 200.072 160.952 199.788 160.952 199.42V195.4H162.752V199.432C162.752 200.272 162.5 200.932 161.996 201.412C161.492 201.884 160.8 202.12 159.92 202.12ZM164.308 202V195.4H166.048V196.66H166.576L166.048 197.08C166.048 196.52 166.208 196.08 166.528 195.76C166.848 195.44 167.28 195.28 167.824 195.28C168.464 195.28 168.976 195.504 169.36 195.952C169.752 196.4 169.948 196.996 169.948 197.74V202H168.148V197.92C168.148 197.576 168.056 197.312 167.872 197.128C167.696 196.936 167.444 196.84 167.116 196.84C166.796 196.84 166.548 196.936 166.372 197.128C166.196 197.312 166.108 197.576 166.108 197.92V202H164.308ZM173.627 202.12C172.963 202.12 172.431 201.888 172.031 201.424C171.631 200.96 171.431 200.332 171.431 199.54V197.86C171.431 197.076 171.631 196.452 172.031 195.988C172.431 195.516 172.963 195.28 173.627 195.28C174.171 195.28 174.599 195.44 174.911 195.76C175.223 196.072 175.379 196.512 175.379 197.08L174.959 196.66H175.379L175.319 195.04V193.24H177.119V202H175.379V200.74H174.959L175.379 200.32C175.379 200.888 175.223 201.332 174.911 201.652C174.599 201.964 174.171 202.12 173.627 202.12ZM174.275 200.56C174.603 200.56 174.859 200.468 175.043 200.284C175.227 200.092 175.319 199.824 175.319 199.48V197.92C175.319 197.576 175.227 197.312 175.043 197.128C174.859 196.936 174.603 196.84 174.275 196.84C173.939 196.84 173.679 196.936 173.495 197.128C173.319 197.312 173.231 197.576 173.231 197.92V199.48C173.231 199.824 173.319 200.092 173.495 200.284C173.679 200.468 173.939 200.56 174.275 200.56Z" fill="white"/>
<path d="M189.049 200.236C189.049 200.526 188.934 200.804 188.729 201.008C188.524 201.213 188.247 201.328 187.957 201.328C187.667 201.328 187.39 201.213 187.185 201.008C186.98 200.804 186.865 200.526 186.865 200.236V194.497C186.865 192.439 189.209 190.73 192.098 190.77C192.963 190.776 193.816 190.966 194.603 191.325C195.668 191.836 196.57 192.633 197.21 193.626L199.018 196.321C199.247 196.603 199.523 197.014 199.247 197.548C199.181 197.675 199.091 197.788 198.982 197.881C198.872 197.974 198.746 198.044 198.609 198.087C198.472 198.131 198.328 198.147 198.185 198.135C198.043 198.123 197.903 198.083 197.776 198.017L197.594 197.848L195.6 196.008V204.75C195.6 205.04 195.485 205.317 195.28 205.522C195.075 205.727 194.797 205.842 194.508 205.842C194.218 205.842 193.94 205.727 193.736 205.522C193.531 205.317 193.416 205.04 193.416 204.75V201.778C193.416 202.067 193.301 202.345 193.096 202.55C192.891 202.755 192.613 202.87 192.324 202.87C192.034 202.87 191.756 202.755 191.551 202.55C191.347 202.345 191.232 202.067 191.232 201.778V201.232C191.232 201.375 191.203 201.517 191.149 201.65C191.094 201.782 191.013 201.902 190.912 202.004C190.81 202.105 190.69 202.186 190.558 202.241C190.425 202.295 190.283 202.324 190.14 202.324C189.996 202.324 189.854 202.295 189.722 202.241C189.589 202.186 189.469 202.105 189.367 202.004C189.266 201.902 189.186 201.782 189.131 201.65C189.076 201.517 189.048 201.375 189.048 201.232V200.236H189.049Z" fill="#FCE7D0"/>
<path d="M191.235 198.817C191.296 198.817 191.354 198.842 191.397 198.885C191.441 198.928 191.465 198.987 191.465 199.048V201.778C191.465 202.006 191.556 202.225 191.717 202.387C191.879 202.549 192.098 202.64 192.327 202.64C192.555 202.64 192.775 202.549 192.936 202.387C193.098 202.225 193.189 202.006 193.189 201.778C193.189 201.717 193.213 201.658 193.256 201.615C193.299 201.572 193.358 201.548 193.419 201.548C193.48 201.548 193.538 201.572 193.581 201.615C193.625 201.658 193.649 201.717 193.649 201.778C193.649 202.128 193.51 202.465 193.262 202.712C193.014 202.96 192.677 203.1 192.327 203.1C191.976 203.1 191.64 202.96 191.392 202.712C191.144 202.465 191.005 202.128 191.005 201.778V199.048C191.005 198.987 191.029 198.928 191.072 198.885C191.115 198.842 191.174 198.817 191.235 198.817Z" fill="#5A150B"/>
<path d="M187.975 201.328C188.118 201.328 188.259 201.3 188.391 201.245C188.522 201.19 188.641 201.109 188.741 201.007C188.841 200.906 188.92 200.785 188.973 200.653C189.026 200.52 189.052 200.379 189.049 200.236V201.232C189.048 201.376 189.076 201.518 189.13 201.652C189.184 201.785 189.265 201.907 189.366 202.009C189.468 202.111 189.588 202.192 189.721 202.247C189.854 202.303 189.997 202.331 190.141 202.331C189.917 202.079 189.8 201.748 189.816 201.411V194.497C189.816 192.83 191.334 191.393 193.454 190.928C193.018 190.829 192.573 190.778 192.126 190.775C189.236 190.735 186.902 192.443 186.902 194.502V200.236C186.899 200.379 186.925 200.52 186.978 200.653C187.031 200.785 187.11 200.906 187.21 201.007C187.31 201.109 187.429 201.19 187.56 201.245C187.692 201.3 187.833 201.328 187.975 201.328Z" fill="#F4C7AD"/>
<path d="M192.003 190.54H192.103C192.999 190.546 193.884 190.742 194.699 191.115C195.801 191.644 196.736 192.467 197.399 193.494L199.201 196.184C199.376 196.4 199.814 196.951 199.448 197.656C199.368 197.811 199.259 197.948 199.127 198.06C198.994 198.172 198.841 198.257 198.676 198.31C198.51 198.363 198.336 198.383 198.163 198.368C197.99 198.354 197.821 198.305 197.667 198.225C197.649 198.216 197.632 198.204 197.617 198.19L195.833 196.543V204.755C195.839 204.932 195.809 205.109 195.745 205.274C195.682 205.44 195.585 205.591 195.462 205.718C195.339 205.846 195.191 205.947 195.028 206.017C194.865 206.086 194.689 206.122 194.511 206.122C194.334 206.122 194.158 206.086 193.995 206.017C193.832 205.947 193.684 205.846 193.561 205.718C193.438 205.591 193.341 205.44 193.278 205.274C193.214 205.109 193.184 204.932 193.19 204.755V199.294C193.19 199.233 193.214 199.175 193.258 199.132C193.301 199.089 193.359 199.064 193.42 199.064C193.481 199.064 193.54 199.089 193.583 199.132C193.626 199.175 193.65 199.233 193.65 199.294V204.755C193.65 204.983 193.741 205.202 193.903 205.364C194.064 205.526 194.284 205.617 194.512 205.617C194.741 205.617 194.96 205.526 195.122 205.364C195.283 205.202 195.374 204.983 195.374 204.755V196.012C195.374 195.967 195.387 195.924 195.412 195.886C195.436 195.849 195.471 195.819 195.512 195.801C195.553 195.783 195.599 195.778 195.643 195.785C195.687 195.793 195.728 195.813 195.761 195.844L197.908 197.824C198.11 197.92 198.341 197.933 198.553 197.862C198.765 197.79 198.941 197.639 199.043 197.44C199.233 197.071 199.1 196.781 198.84 196.46L198.828 196.443L197.025 193.75C196.406 192.793 195.535 192.026 194.508 191.534C193.75 191.187 192.928 191.006 192.095 191C190.497 190.975 188.975 191.523 188.026 192.459C187.413 193.06 187.095 193.764 187.095 194.497V200.236C187.095 200.465 187.186 200.684 187.348 200.846C187.509 201.007 187.728 201.098 187.957 201.098C188.186 201.098 188.405 201.007 188.567 200.846C188.728 200.684 188.819 200.465 188.819 200.236C188.819 200.175 188.843 200.117 188.886 200.074C188.93 200.03 188.988 200.006 189.049 200.006C189.11 200.006 189.169 200.03 189.212 200.074C189.255 200.117 189.279 200.175 189.279 200.236C189.279 200.587 189.14 200.923 188.892 201.171C188.644 201.419 188.308 201.558 187.957 201.558C187.606 201.558 187.27 201.419 187.022 201.171C186.774 200.923 186.635 200.587 186.635 200.236V194.497C186.635 193.638 187.005 192.821 187.709 192.13C188.718 191.135 190.321 190.54 192.003 190.54Z" fill="#5A150B"/>
<path d="M189.049 198.272C189.11 198.272 189.169 198.296 189.212 198.339C189.255 198.382 189.279 198.441 189.279 198.502V201.232C189.279 201.46 189.37 201.679 189.532 201.841C189.693 202.003 189.912 202.094 190.141 202.094C190.37 202.094 190.589 202.003 190.751 201.841C190.912 201.679 191.003 201.46 191.003 201.232C191.003 201.171 191.027 201.112 191.07 201.069C191.114 201.026 191.172 201.002 191.233 201.002C191.294 201.002 191.353 201.026 191.396 201.069C191.439 201.112 191.463 201.171 191.463 201.232C191.463 201.582 191.324 201.919 191.076 202.166C190.828 202.414 190.492 202.554 190.141 202.554C189.79 202.554 189.454 202.414 189.206 202.166C188.958 201.919 188.819 201.582 188.819 201.232V198.497C188.82 198.437 188.845 198.379 188.888 198.337C188.931 198.295 188.989 198.271 189.049 198.272Z" fill="#5A150B"/>
<defs>
<clipPath id="clip0_23_3">
<rect width="300" height="346" fill="white" transform="translate(302)"/>
</clipPath>
</defs>
</svg>
